Coordinates
version=1
nRows=6
nColumns=46
inDegrees=yes

Units are S.I. units (second, meters, Newtons, ...)
Angles are in degrees.

endheader
time	pelvis_tilt	pelvis_list	pelvis_rotation	pelvis_tx	pelvis_ty	pelvis_tz	bb_angle	bb_tx	bb_ty	bb_tz	hip_flexion_r	hip_adduction_r	hip_rotation_r	knee_angle_r	knee_angle_r_beta	ankle_angle_r	subtalar_angle_r	mtp_angle_r	crank_angle_r	hip_flexion_l	hip_adduction_l	hip_rotation_l	knee_angle_l	knee_angle_l_beta	ankle_angle_l	subtalar_angle_l	mtp_angle_l	crank_angle_l	lumbar_extension	lumbar_bending	lumbar_rotation	arm_flex_r	arm_add_r	arm_rot_r	elbow_flex_r	pro_sup_r	wrist_flex_r	wrist_dev_r	arm_flex_l	arm_add_l	arm_rot_l	elbow_flex_l	pro_sup_l	wrist_flex_l	wrist_dev_l
      0.00500000	    -13.10341970	     -4.08903419	     -3.35590011	      0.19174487	      1.04486456	     -0.30990441	      0.00000000	      0.50000000	      0.00000000	      0.25000000	     84.05414993	     -0.01095020	      1.27788641	     95.96420480	      1.67489134	     22.57700248	     -5.36840029	      0.00000000	      0.00000000	     46.18869927	    -12.43403054	     -0.84094282	     67.54465422	      1.17887661	     -2.33795432	     -7.44220764	      0.00000000	      0.00000000	    -57.14083371	      1.48642933	      7.69351747	     89.73863286	     -2.25479874	     41.27123975	     20.62361683	     20.77578325	      0.00000000	      0.00000000	     89.23673555	      2.06284436	     45.41235343	     16.59213796	     25.71120598	      0.00000000	      0.00000000
      0.01000000	    -12.90324257	     -4.06074298	     -3.37524191	      0.19179359	      1.04526933	     -0.30990292	      0.00000000	      0.50000000	      0.00000000	      0.25000000	     83.82102785	      0.00493071	      1.34055840	     95.96162429	      1.67484630	     22.65133452	     -5.19118476	      0.00000000	      0.00000000	     45.91138898	    -12.42922055	     -0.93839430	     67.46640150	      1.17751084	     -2.35255513	     -7.56307545	      0.00000000	      0.00000000	    -57.44310660	      1.41666289	      7.77619280	     89.73638426	     -2.20305873	     38.84569535	     21.09182272	     21.82557059	      0.00000000	      0.00000000	     89.21193497	      2.23784422	     43.46032748	     17.29130475	     26.47763840	      0.00000000	      0.00000000
      0.01500000	    -13.16079355	     -3.93300419	     -3.30601726	      0.19172756	      1.04469703	     -0.31005426	      0.00000000	      0.50000000	      0.00000000	      0.25000000	     84.17805682	     -0.12539758	      1.45412332	     96.02042804	      1.67587262	     22.54066385	     -5.20936759	      0.00000000	      0.00000000	     46.22566176	    -12.23601967	     -0.88797204	     67.52640476	      1.17855810	     -2.28445910	     -7.42437173	      0.00000000	      0.00000000	    -57.10594740	      1.46320255	      7.40533728	     89.73624639	     -0.92963911	     34.03648624	     19.84769592	     25.63522419	      0.00000000	      0.00000000	     89.15882513	      2.81886800	     38.10539998	     16.50142579	     29.09071467	      0.00000000	      0.00000000
      0.02000000	    -12.89292905	     -4.15554409	     -3.34713929	      0.19168907	      1.04518864	     -0.31009056	      0.00000000	      0.50000000	      0.00000000	      0.25000000	     83.74542461	     -0.00527931	      1.24246945	     95.89411693	      1.67366807	     22.82147241	     -5.15112881	      0.00000000	      0.00000000	     45.97051891	    -12.49975795	     -0.90031746	     67.56563726	      1.17924283	     -2.36124620	     -7.60165360	      0.00000000	      0.00000000	    -57.56224182	      1.59325480	      7.70340967	     89.72841963	     -1.49370472	     33.48707219	     21.33857678	     26.48233142	      0.00000000	      0.00000000	     89.17382534	      2.73891869	     37.43223641	     17.44744250	     29.91210094	      0.00000000	      0.00000000
      0.02500000	    -12.92359573	     -4.09541730	     -3.40312788	      0.19168320	      1.04537394	     -0.30980085	      0.00000000	      0.50000000	      0.00000000	      0.25000000	     83.83021160	      0.01918457	      1.32816000	     96.00905555	      1.67567413	     22.75298726	     -5.09172101	      0.00000000	      0.00000000	     45.92020751	    -12.45696657	     -0.90132638	     67.45481674	      1.17730865	     -2.36492507	     -7.60475303	      0.00000000	      0.00000000	    -57.44440922	      1.51408387	      7.72833168	     89.73023430	     -1.42720016	     34.05195316	     20.73847270	     26.20112385	      0.00000000	      0.00000000	     89.20270427	      2.97219585	     37.92226246	     16.42594981	     29.79733544	      0.00000000	      0.00000000
      0.03000000	    -12.89415037	     -4.14300808	     -3.42529507	      0.19166062	      1.04546883	     -0.30970387	      0.00000000	      0.50000000	      0.00000000	      0.25000000	     83.78632259	      0.05746423	      1.27381270	     95.99166247	      1.67537056	     22.67848919	     -5.16128328	      0.00000000	      0.00000000	     45.89289205	    -12.53608872	     -0.93354401	     67.45716044	      1.17734955	     -2.38470696	     -7.63686873	      0.00000000	      0.00000000	    -57.52792794	      1.54296143	      7.84735283	     89.72853821	     -1.51869497	     33.62924017	     21.13832736	     26.80197031	      0.00000000	      0.00000000	     89.17972487	      2.89622355	     37.41767532	     16.85917410	     30.48158991	      0.00000000	      0.00000000
